<svg version="1.0" xmlns="http://www.w3.org/2000/svg"  width="300.000000pt" height="408.000000pt" viewBox="0 0 300.000000 408.000000"  preserveAspectRatio="xMidYMid meet">  <g transform="translate(0.000000,408.000000) scale(0.100000,-0.100000)" fill="#ffea00" stroke="none"> <path d="M1450 3943 c-8 -3 -19 -12 -23 -19 -4 -8 -22 -14 -40 -14 -35 0 -203 -37 -229 -51 -10 -5 -27 -9 -38 -9 -11 0 -30 -11 -42 -25 -12 -14 -27 -25 -33 -25 -20 0 -163 -140 -175 -173 -8 -17 -37 -67 -67 -109 -81 -119 -84 -132 -79 -375 3 -114 11 -226 17 -248 6 -22 14 -84 18 -137 7 -99 14 -125 26 -89 8 26 31 27 43 4 10 -20 -1 -63 -17 -63 -12 0 -4 -116 11 -152 6 -16 8 -37 5 -48 -3 -11 -1 -23 5 -26 5 -3 7 -12 4 -20 -3 -7 -1 -16 4 -19 15 -10 12 -35 -5 -35 -22 0 -6 -29 20 -36 20 -5 24 -17 39 -104 21 -131 21 -238 0 -261 -15 -17 -15 -22 5 -71 12 -29 49 -87 82 -128 68 -86 217 -240 232 -240 5 0 4 6 -2 14 -16 19 4 32 24 16 8 -6 19 -9 25 -5 5 3 10 1 10 -5 0 -6 4 -9 9 -5 5 3 12 1 16 -5 6 -10 64 -28 141 -44 7 -1 19 -8 28 -15 8 -7 19 -10 24 -7 6 3 15 -1 22 -9 7 -8 18 -15 24 -15 7 0 21 -8 32 -18 32 -27 64 -44 64 -32 0 7 6 7 18 1 11 -6 24 -6 35 0 11 7 26 5 46 -5 15 -8 32 -12 36 -8 5 4 5 1 1 -6 -4 -7 -2 -19 4 -27 9 -11 9 -23 0 -49 -13 -39 -4 -146 12 -146 5 0 17 14 26 31 54 99 72 120 93 114 18 -6 20 -4 14 14 -6 21 8 30 20 11 9 -15 25 -12 25 5 0 8 -7 15 -15 15 -8 0 -15 5 -15 10 0 16 30 12 36 -5 4 -8 12 -15 18 -15 18 0 18 70 1 97 -21 31 -19 36 10 29 14 -4 25 -2 25 3 0 5 -9 11 -21 14 -12 3 -18 10 -14 17 4 7 11 8 19 1 7 -6 17 -6 26 -1 13 8 12 10 -2 10 -10 0 -18 5 -18 10 0 6 8 10 18 11 14 0 14 2 -4 11 -15 7 -20 16 -16 34 2 13 8 24 13 24 5 0 9 5 9 10 0 6 -8 10 -17 10 -17 1 -17 1 0 11 22 13 22 50 -2 80 -10 13 -22 35 -26 49 -4 13 -14 30 -22 38 -21 22 -7 95 38 187 21 44 54 120 72 169 25 64 41 92 56 98 17 6 20 13 15 34 -5 18 0 34 14 53 11 16 23 53 27 85 4 31 13 63 20 69 7 7 25 55 40 107 30 102 40 129 90 236 47 100 57 170 51 343 -3 80 -8 162 -11 181 -10 61 -27 120 -36 120 -5 0 -9 14 -9 30 0 17 -4 38 -9 48 -6 9 -17 40 -26 67 -8 29 -29 65 -48 83 -72 71 -109 102 -119 96 -5 -4 -26 9 -46 29 -43 41 -162 108 -200 112 -15 2 -50 6 -79 10 -28 3 -67 12 -85 19 -18 8 -60 14 -93 15 -33 0 -76 5 -95 11 -38 11 -57 12 -80 3z m98 -637 c72 -31 76 -31 97 -10 43 44 224 14 315 -52 28 -20 50 -40 50 -45 0 -5 7 -9 15 -9 8 0 15 -9 15 -21 0 -11 5 -17 10 -14 8 5 15 -21 12 -46 -1 -4 2 -29 7 -57 4 -28 5 -55 1 -59 -11 -12 -31 -103 -25 -113 3 -4 -1 -10 -7 -13 -10 -3 -11 -11 -1 -37 15 -40 11 -47 -20 -33 -34 17 -190 37 -236 30 -22 -3 -57 -13 -78 -23 -32 -16 -39 -26 -47 -64 -9 -43 -12 -171 -5 -218 2 -12 8 -21 14 -19 5 2 9 11 7 20 -1 8 2 18 8 22 5 3 10 19 10 36 0 24 4 29 25 29 17 0 23 4 19 14 -5 13 22 36 44 36 5 0 14 -18 21 -41 10 -32 20 -44 47 -55 42 -17 44 -28 5 -19 -39 8 -48 -10 -13 -24 41 -17 164 -19 170 -3 9 27 35 43 66 40 28 -3 31 -6 32 -40 1 -22 -4 -38 -10 -38 -6 0 -4 -5 4 -10 13 -9 13 -11 1 -19 -9 -6 -15 -28 -16 -58 -1 -27 -4 -54 -8 -60 -4 -6 -1 -14 5 -16 8 -3 5 -6 -6 -6 -12 -1 -16 -6 -12 -16 3 -8 2 -15 -2 -15 -10 0 -33 -66 -39 -112 -3 -21 -11 -42 -19 -49 -8 -6 -14 -16 -14 -21 0 -6 -14 -23 -31 -39 -17 -16 -28 -33 -24 -39 8 -14 -46 -62 -62 -56 -6 3 -17 -2 -24 -10 -10 -13 -15 -13 -35 1 -29 19 -34 19 -34 -1 0 -27 -40 -74 -64 -74 -22 0 -34 -34 -16 -45 11 -7 1 -37 -14 -47 -6 -4 -21 -8 -34 -8 -12 0 -25 -7 -28 -15 -4 -8 -13 -15 -20 -15 -8 0 -17 -6 -20 -14 -3 -8 -15 -11 -32 -9 -15 3 -60 5 -100 4 -59 -1 -76 3 -91 18 -12 12 -27 17 -40 14 -12 -3 -21 -1 -21 6 0 6 -7 11 -15 11 -9 0 -20 10 -25 23 -5 12 -9 19 -9 15 -2 -16 -59 50 -77 89 -10 24 -23 43 -27 43 -5 0 -5 5 -1 12 4 7 3 8 -4 4 -12 -7 -42 42 -42 68 0 8 -11 28 -25 44 -14 17 -25 35 -25 41 0 6 -7 8 -15 5 -11 -5 -15 1 -15 19 0 14 -6 30 -13 34 -8 4 -17 16 -20 27 -4 10 -13 16 -21 13 -11 -5 -13 0 -6 23 7 24 6 28 -7 23 -13 -5 -15 0 -11 25 2 17 1 29 -4 26 -4 -3 -9 7 -10 23 -3 53 -4 58 -12 72 -5 8 -9 53 -8 100 1 175 22 282 56 287 24 3 33 14 13 14 -9 0 -17 5 -17 10 0 6 9 10 21 10 15 0 19 4 15 16 -4 9 -1 23 5 30 6 8 8 14 3 14 -5 0 -2 5 6 10 8 5 15 17 15 27 0 10 6 17 13 15 8 -1 11 2 8 7 -3 5 2 15 11 22 10 8 14 9 10 2 -5 -8 0 -11 13 -10 23 1 23 2 10 28 -8 13 -7 19 0 19 7 0 8 6 0 19 -14 27 -13 44 4 38 10 -4 12 4 10 34 -3 29 0 39 11 39 18 0 20 17 3 22 -7 3 -8 9 -3 19 5 8 10 19 10 24 0 23 38 63 78 82 68 33 97 39 193 42 79 2 100 -1 152 -23z m379 -593 c-4 -3 -10 -3 -14 0 -3 4 0 7 7 7 7 0 10 -3 7 -7z m30 -10 c-4 -3 -10 -3 -14 0 -3 4 0 7 7 7 7 0 10 -3 7 -7z m-37 -98 c0 -9 -9 -15 -21 -15 -18 0 -19 2 -9 15 7 8 16 15 21 15 5 0 9 -7 9 -15z m110 -529 c0 -3 -5 -8 -12 -12 -7 -4 -8 -3 -4 4 7 12 16 16 16 8z m-880 -490 c0 -3 -4 -8 -10 -11 -5 -3 -10 -1 -10 4 0 6 5 11 10 11 6 0 10 -2 10 -4z m847 -123 c-4 -3 -10 -3 -14 0 -3 4 0 7 7 7 7 0 10 -3 7 -7z m-17 -138 c0 -13 -4 -14 -20 -5 -11 6 -20 13 -20 15 0 3 9 5 20 5 11 0 20 -7 20 -15z"/> <path d="M1120 2879 c-42 -23 -90 -72 -90 -93 0 -20 37 -30 64 -18 46 22 87 31 123 25 30 -5 34 -8 18 -14 -11 -4 -32 -8 -47 -8 -31 -1 -131 -46 -148 -66 -9 -10 -6 -18 9 -32 11 -10 40 -37 65 -60 24 -24 52 -43 61 -43 14 0 15 3 6 14 -10 12 -8 16 11 22 13 4 39 6 59 6 33 -2 38 2 54 38 16 35 45 55 45 32 0 -5 12 -14 27 -21 22 -10 24 -14 12 -22 -11 -7 -9 -9 9 -9 24 0 29 18 10 39 -11 11 -10 12 2 6 8 -4 23 -15 33 -23 23 -20 29 -12 35 48 7 74 -22 126 -88 158 -19 9 -231 46 -234 41 -1 -1 -17 -10 -36 -20z m91 -221 c10 -18 9 -20 -6 -15 -9 4 -19 7 -21 7 -2 0 -4 7 -4 15 0 22 18 18 31 -7z"/> <path d="M1024 2875 c-4 -9 -2 -21 3 -26 7 -7 12 -3 16 10 6 25 -11 39 -19 16z"/> <path d="M1010 2790 c0 -7 3 -10 7 -7 3 4 3 10 0 14 -4 3 -7 0 -7 -7z"/> <path d="M1223 2563 c4 -3 10 -3 14 0 3 4 0 7 -7 7 -7 0 -10 -3 -7 -7z"/> <path d="M1662 2414 c-1 -15 3 -24 13 -24 8 0 15 5 15 10 0 6 -5 10 -11 10 -5 0 -8 4 -4 9 3 5 2 12 -3 15 -4 2 -9 -6 -10 -20z"/> <path d="M1388 2309 c-21 -12 -23 -35 -5 -46 23 -15 46 -59 37 -73 -8 -14 -32 -15 -112 -6 -17 2 -28 -2 -28 -9 0 -7 -11 -15 -25 -17 -14 -3 -25 -2 -25 2 0 5 -9 6 -19 3 -17 -4 -20 -13 -18 -67 l2 -63 32 10 c33 10 63 -2 63 -27 0 -6 12 -24 28 -39 107 -106 119 -114 162 -112 65 4 96 11 108 22 7 7 22 13 33 13 10 0 19 5 19 10 0 6 6 10 14 10 16 0 73 56 68 66 -6 12 22 24 54 24 30 0 32 3 36 39 2 26 0 37 -8 34 -7 -2 -15 0 -19 6 -3 6 -18 11 -33 11 -21 0 -24 2 -12 10 10 6 11 10 3 10 -7 0 -13 9 -13 20 0 13 -7 20 -18 20 -40 0 -57 56 -27 86 25 26 18 50 -19 61 -28 9 -39 7 -72 -13 -50 -30 -74 -30 -108 1 -28 26 -68 32 -98 14z m72 -139 c0 -5 16 -17 36 -26 26 -13 38 -14 47 -5 13 13 77 15 77 2 0 -5 11 -12 25 -15 36 -9 34 -39 -2 -32 -16 3 -93 8 -173 11 -80 2 -147 5 -150 5 -2 0 12 12 33 26 21 14 45 23 53 20 7 -3 20 1 26 9 15 17 28 19 28 5z m-190 -40 c0 -5 -4 -10 -10 -10 -5 0 -10 5 -10 10 0 6 5 10 10 10 6 0 10 -4 10 -10z m303 -96 c26 -8 21 -33 -8 -40 -73 -18 -197 19 -155 47 14 9 121 4 163 -7z"/> <path d="M2143 1403 c4 -3 10 -3 14 0 3 4 0 7 -7 7 -7 0 -10 -3 -7 -7z"/> <path d="M2078 1315 c-2 -19 0 -35 4 -35 17 0 28 61 12 67 -7 2 -13 -11 -16 -32z"/> <path d="M1333 1314 c-6 -17 -7 -39 -2 -110 1 -22 -1 -46 -5 -53 -13 -20 24 -53 52 -46 14 3 31 0 39 -7 9 -7 17 -12 17 -10 1 2 9 0 19 -3 10 -4 17 -18 17 -32 0 -14 4 -22 10 -18 6 4 8 11 5 16 -4 5 -1 9 4 9 6 0 11 -5 11 -11 0 -7 9 -9 21 -6 15 4 19 2 15 -9 -7 -17 10 -19 17 -1 4 9 8 9 15 -2 9 -12 13 -12 26 2 23 22 20 29 -23 59 -27 20 -41 24 -49 16 -8 -8 -9 -5 -5 11 4 16 1 21 -15 21 -33 0 -52 11 -52 30 0 25 -20 37 -21 13 0 -14 -2 -14 -6 -3 -3 8 -17 25 -31 37 -15 13 -21 23 -15 23 9 0 10 7 3 25 -7 20 -6 25 5 25 8 0 15 5 15 11 0 6 -6 9 -14 6 -8 -3 -17 1 -20 9 -7 19 -25 18 -33 -2z"/> <path d="M1250 1282 c0 -27 7 -45 23 -60 31 -29 37 -28 37 9 0 31 -33 89 -51 89 -5 0 -9 -17 -9 -38z"/> <path d="M1410 1280 c0 -7 3 -10 7 -7 3 4 3 10 0 14 -4 3 -7 0 -7 -7z"/> <path d="M1140 1256 c0 -8 64 -66 73 -66 5 0 25 -16 45 -34 24 -23 39 -31 44 -24 8 14 -8 48 -23 48 -6 0 -29 13 -52 29 -50 33 -87 54 -87 47z"/> <path d="M1975 1230 c-3 -5 -1 -10 4 -10 6 0 11 5 11 10 0 6 -2 10 -4 10 -3 0 -8 -4 -11 -10z"/> <path d="M1479 1217 c-13 -36 0 -59 39 -69 26 -7 26 -9 7 29 -12 25 -42 51 -46 40z"/> <path d="M1940 1210 c0 -7 3 -10 7 -7 3 4 3 10 0 14 -4 3 -7 0 -7 -7z"/> <path d="M1980 1195 c-7 -8 -19 -15 -27 -15 -29 0 -47 -31 -47 -85 -1 -50 0 -53 16 -38 10 9 20 24 23 35 4 10 20 33 36 50 28 31 39 68 20 68 -5 0 -14 -7 -21 -15z"/> <path d="M1897 1183 c-4 -3 -7 -11 -7 -17 0 -6 5 -5 12 2 6 6 9 14 7 17 -3 3 -9 2 -12 -2z"/> <path d="M1440 1060 c0 -7 3 -10 7 -7 3 4 3 10 0 14 -4 3 -7 0 -7 -7z"/> <path d="M1620 1030 c0 -5 5 -10 10 -10 6 0 10 5 10 10 0 6 -4 10 -10 10 -5 0 -10 -4 -10 -10z"/> <path d="M1500 1020 c0 -7 3 -10 7 -7 3 4 3 10 0 14 -4 3 -7 0 -7 -7z"/> <path d="M1460 1010 c0 -7 3 -10 7 -7 3 4 3 10 0 14 -4 3 -7 0 -7 -7z"/> <path d="M1565 1000 c3 -5 8 -10 11 -10 2 0 4 5 4 10 0 6 -5 10 -11 10 -5 0 -7 -4 -4 -10z"/> <path d="M1596 994 c-9 -22 3 -32 14 -14 12 19 12 30 1 30 -5 0 -12 -7 -15 -16z"/> <path d="M1485 990 c3 -5 8 -10 11 -10 2 0 4 5 4 10 0 6 -5 10 -11 10 -5 0 -7 -4 -4 -10z"/> <path d="M1523 993 c4 -3 10 -3 14 0 3 4 0 7 -7 7 -7 0 -10 -3 -7 -7z"/> <path d="M1630 980 c0 -5 4 -10 9 -10 6 0 13 5 16 10 3 6 -1 10 -9 10 -9 0 -16 -4 -16 -10z"/> <path d="M1550 970 c0 -7 3 -10 7 -7 3 4 3 10 0 14 -4 3 -7 0 -7 -7z"/> <path d="M1513 963 c4 -3 10 -3 14 0 3 4 0 7 -7 7 -7 0 -10 -3 -7 -7z"/> <path d="M1620 949 c0 -5 5 -7 10 -4 6 3 10 8 10 11 0 2 -4 4 -10 4 -5 0 -10 -5 -10 -11z"/> <path d="M1500 940 c0 -5 5 -10 11 -10 5 0 7 5 4 10 -3 6 -8 10 -11 10 -2 0 -4 -4 -4 -10z"/> <path d="M1543 943 c4 -3 10 -3 14 0 3 4 0 7 -7 7 -7 0 -10 -3 -7 -7z"/> <path d="M1668 943 c-22 -5 -24 -23 -3 -23 8 0 15 -8 16 -17 0 -15 2 -15 9 2 11 26 12 45 3 44 -5 -1 -16 -3 -25 -6z"/> <path d="M1635 900 c3 -5 8 -10 11 -10 2 0 4 5 4 10 0 6 -5 10 -11 10 -5 0 -7 -4 -4 -10z"/> <path d="M1573 893 c4 -3 10 -3 14 0 3 4 0 7 -7 7 -7 0 -10 -3 -7 -7z"/> <path d="M1773 893 c4 -3 10 -3 14 0 3 4 0 7 -7 7 -7 0 -10 -3 -7 -7z"/> <path d="M1600 869 c0 -5 5 -7 10 -4 6 3 10 8 10 11 0 2 -4 4 -10 4 -5 0 -10 -5 -10 -11z"/> <path d="M1880 870 c0 -7 3 -10 7 -7 3 4 3 10 0 14 -4 3 -7 0 -7 -7z"/> <path d="M1635 850 c3 -5 8 -10 11 -10 2 0 4 5 4 10 0 6 -5 10 -11 10 -5 0 -7 -4 -4 -10z"/> <path d="M1593 843 c4 -3 10 -3 14 0 3 4 0 7 -7 7 -7 0 -10 -3 -7 -7z"/> <path d="M1630 815 c0 -8 2 -15 4 -15 2 0 6 7 10 15 3 8 1 15 -4 15 -6 0 -10 -7 -10 -15z"/> <path d="M1683 807 c-19 -23 -23 -75 -8 -87 24 -20 45 10 38 54 -6 41 -16 52 -30 33z"/> <path d="M1610 781 c0 -5 5 -11 11 -13 8 -3 5 -10 -6 -21 -9 -10 -14 -21 -10 -25 4 -4 10 -1 12 6 3 6 11 12 19 12 11 0 11 5 2 25 -11 24 -28 34 -28 16z"/> <path d="M1590 760 c0 -7 3 -10 7 -7 3 4 3 10 0 14 -4 3 -7 0 -7 -7z"/> <path d="M1610 699 c0 -5 -4 -7 -10 -4 -6 3 -7 -1 -4 -9 3 -9 10 -16 14 -16 12 0 30 26 23 33 -10 11 -23 8 -23 -4z"/> <path d="M1610 639 c0 -11 5 -17 10 -14 6 3 10 13 10 21 0 8 -4 14 -10 14 -5 0 -10 -9 -10 -21z"/> <path d="M1620 570 c0 -7 3 -10 7 -7 3 4 3 10 0 14 -4 3 -7 0 -7 -7z"/> <path d="M83 159 c3 -13 9 -54 13 -92 5 -47 11 -67 21 -67 18 0 28 27 15 43 -17 22 -24 67 -10 67 8 0 6 5 -4 11 -10 5 -18 19 -18 29 0 10 -5 22 -11 26 -8 5 -10 0 -6 -17z"/> <path d="M51 48 c-1 -41 2 -48 18 -48 19 0 19 2 7 32 -7 18 -16 40 -19 48 -3 8 -6 -6 -6 -32z"/> <path d="M2820 40 c0 -11 0 -22 0 -25 0 -3 3 -5 7 -5 5 0 9 11 10 25 1 14 -2 25 -8 25 -5 0 -9 -9 -9 -20z"/> </g> </svg>
